# xmcd CD database file
#
# Track frame offsets:
#	150
#	31027
#	55703
#	72312
#	88716
#	121074
#	149892
#	172668
#	187130
#	205853
#	230914
#	256086
#
# Disc length: 3814 seconds
#
# Revision: 0
# Processed by: cddbd v1.5.1PL0 Copyright (c) Steve Scherf et al.
# Submitted via: CDex 1.51
#
DISCID=a70ee40c
DTITLE=Bebados Habilidosos - Envelhecido 12 Anos
DYEAR=2004
DGENRE=Blues
TTITLE0=Whisky e Blues
TTITLE1=B.V.C.
TTITLE2=A Volta do boêmio
TTITLE3=Mutantes
TTITLE4=Último Gole (Pelo Amor de Deus)
TTITLE5=O Último Blues
TTITLE6=Rio de Whisky
TTITLE7=Ruas Cruas
TTITLE8=Vampiro
TTITLE9=Whisky e blues
TTITLE10=Bonus Track
TTITLE11=Bonus Track
EXTD=YEAR: 2004
EXTT0=
EXTT1=
EXTT2=
EXTT3=
EXTT4=
EXTT5=
EXTT6=
EXTT7=
EXTT8=
EXTT9=
EXTT10=
EXTT11=
PLAYORDER=
